<svg width="19" height="17" viewBox="0 0 19 17" fill="none" xmlns="http://www.w3.org/2000/svg">
  <path d="M9.61189 12.4644H4.30218L2.93136 16.4225C2.91553 16.5531 2.83295 16.6184 2.6836 16.6184H0.191198C0.0250376 16.6184 -0.0328215 16.5368 0.01762 16.3736L4.82736 2.08824C4.9632 1.65328 5.03027 1.19978 5.02616 0.744124C5.02348 0.724008 5.02546 0.703542 5.03197 0.684318C5.03847 0.665094 5.04932 0.647628 5.06367 0.633277C5.07803 0.618927 5.09549 0.608077 5.11472 0.601571C5.13394 0.595066 5.1544 0.59308 5.17452 0.595767H8.66389C8.76477 0.595767 8.82263 0.637307 8.83895 0.71742L14.2214 16.3988C14.2718 16.5471 14.2303 16.6184 14.0967 16.6184H11.3061C11.2545 16.6214 11.2031 16.6089 11.1587 16.5825C11.1143 16.556 11.0788 16.5169 11.0569 16.47L9.61189 12.4644ZM4.89561 9.79392H9.03181C8.93241 9.57584 7.07201 3.5733 6.93849 3.0674H6.91475L4.89561 9.79392Z" fill="#4E421B" />
  <path d="M17.1989 3.5629C16.965 3.5729 16.7314 3.5359 16.512 3.45411C16.2927 3.37231 16.0919 3.24737 15.9216 3.08667C15.7549 2.91724 15.6254 2.715 15.5411 2.4928C15.4568 2.27059 15.4196 2.03329 15.432 1.79596C15.421 1.55562 15.46 1.3156 15.5465 1.09112C15.6331 0.86664 15.7654 0.66259 15.9349 0.491899C16.1066 0.328474 16.3093 0.200986 16.5309 0.116915C16.7526 0.0328447 16.9887 -0.00611584 17.2256 0.00231958C17.463 -0.0100415 17.7003 0.0271001 17.9225 0.111384C18.1447 0.195668 18.3469 0.325251 18.5164 0.491899C18.6785 0.666621 18.8042 0.871968 18.886 1.0959C18.9678 1.31983 19.004 1.55784 18.9926 1.79596C19.0049 2.03329 18.9678 2.27059 18.8835 2.4928C18.7992 2.715 18.6697 2.91724 18.503 3.08667C18.3283 3.24886 18.1229 3.37453 17.899 3.4563C17.6751 3.53808 17.4371 3.57432 17.1989 3.5629Z" fill="#4E421B" />
  <path d="M15.7284 16.3959V4.94861C15.7244 4.92158 15.7268 4.89399 15.7354 4.86804C15.744 4.8421 15.7585 4.81852 15.7778 4.7992C15.7972 4.77988 15.8207 4.76535 15.8467 4.75677C15.8726 4.74819 15.9002 4.74581 15.9272 4.74981H18.4968C18.5238 4.74613 18.5512 4.74873 18.577 4.75742C18.6028 4.76611 18.6263 4.78065 18.6455 4.7999C18.6648 4.81915 18.6793 4.84258 18.688 4.86838C18.6967 4.89418 18.6993 4.92164 18.6956 4.94861V16.4196C18.6996 16.4466 18.6972 16.4742 18.6886 16.5002C18.6801 16.5261 18.6655 16.5497 18.6462 16.569C18.6269 16.5883 18.6033 16.6029 18.5774 16.6114C18.5514 16.62 18.5238 16.6224 18.4968 16.6184H15.951C15.9208 16.6226 15.89 16.6197 15.8611 16.61C15.8322 16.6003 15.8059 16.584 15.7844 16.5625C15.7628 16.5409 15.7465 16.5146 15.7368 16.4857C15.7271 16.4568 15.7243 16.4261 15.7284 16.3959Z" fill="#4E421B" />
</svg>