<svg width="22" height="22" viewBox="0 0 22 22" fill="none" xmlns="http://www.w3.org/2000/svg">
  <g clip-path="url(#clip0_93_815)">
    <path fill-rule="evenodd" clip-rule="evenodd" d="M22.0039 19.7722V12.7029C22.0039 11.9708 21.4095 11.3774 20.6762 11.3774H12.7098C11.9765 11.3774 11.3821 11.9708 11.3821 12.7029V19.7722C11.3821 20.5043 11.9765 21.0977 12.7098 21.0977H20.6762C21.4095 21.0977 22.0039 20.5043 22.0039 19.7722ZM6.25448 18.8965L8.45957 21.0977H9.16911C9.60928 21.0977 9.99931 20.8841 10.2409 20.5547L7.73006 18.0482C7.55714 17.8755 7.27694 17.8755 7.10422 18.0482L6.25448 18.8965ZM0.630425 20.9685C0.803774 21.0514 0.997728 21.0977 1.20273 21.0977H7.20768L4.16729 18.0624C3.99436 17.89 3.71416 17.89 3.54145 18.0624L0.630425 20.9685ZM0.00437407 20.3437L2.9154 17.4376C3.43395 16.9199 4.27457 16.9199 4.79313 17.4376L5.62864 18.2715L6.47817 17.4234C6.99673 16.9057 7.83734 16.9057 8.3559 17.4234L10.4968 19.5607V12.7029C10.4968 11.9708 9.90244 11.3774 9.16911 11.3774H1.20273C0.469611 11.3774 -0.125 11.9708 -0.125 12.7029V19.7722C-0.125 19.9768 -0.0784763 20.1707 0.00437407 20.3437ZM19.1405 16.6122C19.2698 16.5316 19.3484 16.3899 19.3484 16.2376C19.3484 16.0852 19.2698 15.9437 19.1405 15.8629L15.5998 13.6537C15.4634 13.5686 15.2913 13.5642 15.1507 13.642C15.0101 13.7198 14.9227 13.8679 14.9227 14.0284V18.4467C14.9227 18.6074 15.0101 18.7552 15.1507 18.8333C15.2913 18.9111 15.4634 18.9065 15.5998 18.8214L19.1405 16.6122ZM3.85819 16.2376C4.8354 16.2376 5.62864 15.4457 5.62864 14.4702C5.62864 13.4948 4.8354 12.7029 3.85819 12.7029C2.88119 12.7029 2.08795 13.4948 2.08795 14.4702C2.08795 15.4457 2.88119 16.2376 3.85819 16.2376ZM11.8246 10.4937V7.40092C11.8246 6.66882 12.419 6.07543 13.1523 6.07543H16.2505V2.09893C16.2505 1.36684 15.6561 0.773438 14.9227 0.773438H6.95637C6.22304 0.773438 5.62864 1.36684 5.62864 2.09893V9.16818C5.62864 9.90028 6.22304 10.4937 6.95637 10.4937H11.8246ZM15.9911 6.95916H13.1523C12.908 6.95916 12.7098 7.15703 12.7098 7.40092V10.2349L15.9911 6.95916ZM7.84138 6.95916H10.4968C10.7411 6.95916 10.9396 6.76108 10.9396 6.51719C10.9396 6.27351 10.7411 6.07543 10.4968 6.07543H7.84138C7.59729 6.07543 7.39887 6.27351 7.39887 6.51719C7.39887 6.76108 7.59729 6.95916 7.84138 6.95916ZM7.84138 5.19169H14.0375C14.2818 5.19169 14.48 4.99382 14.48 4.74993C14.48 4.50604 14.2818 4.30817 14.0375 4.30817H7.84138C7.59729 4.30817 7.39887 4.50604 7.39887 4.74993C7.39887 4.99382 7.59729 5.19169 7.84138 5.19169ZM7.84138 3.42443H14.0375C14.2818 3.42443 14.48 3.22635 14.48 2.98267C14.48 2.73878 14.2818 2.5407 14.0375 2.5407H7.84138C7.59729 2.5407 7.39887 2.73878 7.39887 2.98267C7.39887 3.22635 7.59729 3.42443 7.84138 3.42443Z" fill="#4E421B" />
  </g>
  <defs>
    <clipPath id="clip0_93_815">
      <rect width="22" height="22" fill="white" />
    </clipPath>
  </defs>
</svg>