<svg width="22" height="22" viewBox="0 0 22 22" fill="none" xmlns="http://www.w3.org/2000/svg">
  <path d="M11.7977 6.58264C11.9362 6.58264 12.0525 6.68698 12.0674 6.82468L13.2907 18.1077C13.2951 18.1803 13.2775 18.2528 13.2379 18.3122L11.2779 21.3018C11.2536 21.3392 11.2207 21.37 11.1833 21.3964C11.0336 21.4954 10.8313 21.4536 10.7323 21.3018L8.77225 18.3122C8.73261 18.2528 8.71505 18.1803 8.7194 18.1077L9.94271 6.82468C9.95764 6.68698 10.0739 6.58264 10.2124 6.58264H11.7977Z" fill="#4E421B" />
  <path d="M16.8287 1.05442L14.7058 4.32121C14.653 4.4026 14.5672 4.4554 14.4726 4.46639C14.4594 4.46859 14.4462 4.46859 14.4331 4.46859C14.3494 4.46859 14.2703 4.43779 14.2087 4.38059L11.7602 2.09495C11.7118 2.05096 11.6788 1.99156 11.6634 1.92557C11.6261 1.74958 11.7382 1.57578 11.9142 1.53839L16.4855 0.557253C16.6153 0.530856 16.7495 0.58365 16.8243 0.691454C16.8991 0.801446 16.9013 0.944429 16.8287 1.05442Z" fill="#4E421B" />
  <path d="M10.2464 2.09493L7.79791 4.38058C7.7363 4.43778 7.65714 4.46858 7.57352 4.46858C7.56036 4.46858 7.54715 4.46858 7.53393 4.46638C7.43936 4.45538 7.35353 4.40259 7.30074 4.32119L5.1779 1.05441C5.13171 0.981806 5.1141 0.89382 5.13171 0.808023C5.1713 0.632038 5.34509 0.519843 5.52109 0.557237L10.0923 1.53837C10.2111 1.56257 10.3058 1.65277 10.3387 1.76936C10.3717 1.88814 10.3343 2.01354 10.2464 2.09493Z" fill="#4E421B" />
  <path d="M9.23708 4.37206L9.89015 5.90335C9.94148 6.02372 10.0597 6.10183 10.1905 6.10185H11.8232C11.9541 6.10185 12.0723 6.02373 12.1236 5.90335L12.7767 4.37206C12.8299 4.24709 12.8003 4.10222 12.7022 4.00821L11.2328 2.60065C11.1065 2.4798 10.9074 2.4798 10.781 2.60065L9.31162 4.00821C9.21352 4.10219 9.18383 4.24708 9.23708 4.37206Z" fill="#4E421B" />
</svg>