<svg width="22" height="22" viewBox="0 0 22 22" fill="none" xmlns="http://www.w3.org/2000/svg">
  <g clip-path="url(#clip0_93_1125)">
    <path d="M18.2188 7.90625C18.2188 3.72281 15.1834 0.6875 11 0.6875C10.0616 0.6875 9.185 1.17562 8.68313 1.95937C8.32906 1.80125 7.9475 1.71875 7.5625 1.71875C6.04656 1.71875 4.8125 2.95281 4.8125 4.46875C4.8125 4.8125 4.87781 5.15281 5.00156 5.46906C4.24875 5.89187 3.78125 6.67906 3.78125 7.5625C3.78125 8.44594 4.24187 9.21937 4.98438 9.64563C4.99125 9.64906 4.99469 9.6525 5.00156 9.65594C4.87781 9.97219 4.8125 10.3125 4.8125 10.6562C4.8125 12.1241 5.9675 13.3272 7.41812 13.4028C7.83406 14.4272 8.84812 15.125 9.96875 15.125C10.2059 15.125 10.4363 15.0975 10.6562 15.0391V15.8125H7.5625C7.37344 15.8125 7.21875 15.9672 7.21875 16.1562C7.21875 16.3453 7.37344 16.5 7.5625 16.5H7.90625V17.5312H7.5625C7.37344 17.5312 7.21875 17.6859 7.21875 17.875C7.21875 18.0641 7.37344 18.2188 7.5625 18.2188H7.90625V18.5625C7.90625 19.3222 8.52156 19.9375 9.28125 19.9375C9.28125 20.6972 9.89656 21.3125 10.6562 21.3125H11.3438C12.1034 21.3125 12.7188 20.6972 12.7188 19.9375C13.4784 19.9375 14.0938 19.3222 14.0938 18.5625V18.2188H14.4375C14.6266 18.2188 14.7812 18.0641 14.7812 17.875C14.7812 17.6859 14.6266 17.5312 14.4375 17.5312H14.0938V16.5H14.4375C14.6266 16.5 14.7812 16.3453 14.7812 16.1562C14.7812 15.9672 14.6266 15.8125 14.4375 15.8125H14.1006C14.1556 14.9909 14.5784 14.2347 15.2831 13.7122C17.1222 12.3578 18.2188 10.1853 18.2188 7.90625ZM8.59375 4.125C8.78281 4.125 8.9375 4.27969 8.9375 4.46875C8.9375 4.65781 8.78281 4.8125 8.59375 4.8125C8.21562 4.8125 7.90625 5.12187 7.90625 5.5C7.90625 5.68906 7.75156 5.84375 7.5625 5.84375C7.37344 5.84375 7.21875 5.68906 7.21875 5.5C7.21875 4.74031 7.83406 4.125 8.59375 4.125ZM6.1875 9.96875C6.00531 9.96875 5.81969 9.94812 5.64438 9.90687C5.67531 9.82094 5.71312 9.73844 5.75781 9.65938C5.80594 9.57 5.81625 9.46688 5.78187 9.37406C5.75094 9.28469 5.68563 9.21594 5.59969 9.17813C5.78875 9.24687 5.98469 9.28125 6.1875 9.28125C7.13625 9.28125 7.90625 8.51125 7.90625 7.5625C7.90625 7.37344 8.06094 7.21875 8.25 7.21875C8.43906 7.21875 8.59375 7.37344 8.59375 7.5625C8.59375 8.88937 7.51437 9.96875 6.1875 9.96875ZM9.28125 12.0312C8.52156 12.0312 7.90625 11.4159 7.90625 10.6562C7.90625 10.4672 8.06094 10.3125 8.25 10.3125C8.43906 10.3125 8.59375 10.4672 8.59375 10.6562C8.59375 11.0344 8.90312 11.3438 9.28125 11.3438C9.47031 11.3438 9.625 11.4984 9.625 11.6875C9.625 11.8766 9.47031 12.0312 9.28125 12.0312ZM14.8741 13.1622C13.9941 13.8119 13.4647 14.7709 13.4097 15.8125H11.3438V1.38187C15.0047 1.53656 17.5312 4.17656 17.5312 7.90625C17.5312 9.96875 16.5378 11.9316 14.8741 13.1622Z" fill="#4E421B" />
    <path d="M5.5 15.125C4.93281 15.125 4.46875 14.6609 4.46875 14.0938C4.46875 13.9047 4.31406 13.75 4.125 13.75C3.93594 13.75 3.78125 13.9047 3.78125 14.0938C3.78125 14.6609 3.31719 15.125 2.75 15.125C2.56094 15.125 2.40625 15.2797 2.40625 15.4688C2.40625 15.6578 2.56094 15.8125 2.75 15.8125C3.31719 15.8125 3.78125 16.2766 3.78125 16.8438C3.78125 17.0328 3.93594 17.1875 4.125 17.1875C4.31406 17.1875 4.46875 17.0328 4.46875 16.8438C4.46875 16.2766 4.93281 15.8125 5.5 15.8125C5.68906 15.8125 5.84375 15.6578 5.84375 15.4688C5.84375 15.2797 5.68906 15.125 5.5 15.125Z" fill="#4E421B" />
    <path d="M2.75 4.125C2.75 3.55781 3.21406 3.09375 3.78125 3.09375C3.97031 3.09375 4.125 2.93906 4.125 2.75C4.125 2.56094 3.97031 2.40625 3.78125 2.40625C3.21406 2.40625 2.75 1.94219 2.75 1.375C2.75 1.18594 2.59531 1.03125 2.40625 1.03125C2.21719 1.03125 2.0625 1.18594 2.0625 1.375C2.0625 1.94219 1.59844 2.40625 1.03125 2.40625C0.842187 2.40625 0.6875 2.56094 0.6875 2.75C0.6875 2.93906 0.842187 3.09375 1.03125 3.09375C1.59844 3.09375 2.0625 3.55781 2.0625 4.125C2.0625 4.31406 2.21719 4.46875 2.40625 4.46875C2.59531 4.46875 2.75 4.31406 2.75 4.125Z" fill="#4E421B" />
    <path d="M20.9688 2.75C20.4016 2.75 19.9375 2.28594 19.9375 1.71875C19.9375 1.52969 19.7828 1.375 19.5938 1.375C19.4047 1.375 19.25 1.52969 19.25 1.71875C19.25 2.28594 18.7859 2.75 18.2188 2.75C18.0297 2.75 17.875 2.90469 17.875 3.09375C17.875 3.28281 18.0297 3.4375 18.2188 3.4375C18.7859 3.4375 19.25 3.90156 19.25 4.46875C19.25 4.65781 19.4047 4.8125 19.5938 4.8125C19.7828 4.8125 19.9375 4.65781 19.9375 4.46875C19.9375 3.90156 20.4016 3.4375 20.9688 3.4375C21.1578 3.4375 21.3125 3.28281 21.3125 3.09375C21.3125 2.90469 21.1578 2.75 20.9688 2.75Z" fill="#4E421B" />
    <path d="M19.25 15.125C18.6828 15.125 18.2188 14.6609 18.2188 14.0938C18.2188 13.9047 18.0641 13.75 17.875 13.75C17.6859 13.75 17.5312 13.9047 17.5312 14.0938C17.5312 14.6609 17.0672 15.125 16.5 15.125C16.3109 15.125 16.1562 15.2797 16.1562 15.4688C16.1562 15.6578 16.3109 15.8125 16.5 15.8125C17.0672 15.8125 17.5312 16.2766 17.5312 16.8438C17.5312 17.0328 17.6859 17.1875 17.875 17.1875C18.0641 17.1875 18.2188 17.0328 18.2188 16.8438C18.2188 16.2766 18.6828 15.8125 19.25 15.8125C19.4391 15.8125 19.5938 15.6578 19.5938 15.4688C19.5938 15.2797 19.4391 15.125 19.25 15.125Z" fill="#4E421B" />
  </g>
  <defs>
    <clipPath id="clip0_93_1125">
      <rect width="22" height="22" fill="white" />
    </clipPath>
  </defs>
</svg>