<svg width="22" height="22" viewBox="0 0 22 22" fill="none" xmlns="http://www.w3.org/2000/svg">
  <g clip-path="url(#clip0_93_836)">
    <path d="M13.8338 20.3866C13.9133 20.7166 13.7055 21.0405 13.3755 21.1139C12.5872 21.2972 11.7866 21.3889 10.9983 21.3889C5.27215 21.3889 0.609375 16.7261 0.609375 11C0.609375 5.27386 5.27215 0.611084 10.9983 0.611084C16.7244 0.611084 21.3872 5.27386 21.3872 11C21.3872 11.7883 21.2955 12.5889 21.1122 13.3772C21.0388 13.7072 20.7149 13.915 20.3849 13.8355C20.0549 13.7622 19.8472 13.4383 19.9266 13.1083C20.0855 12.4055 20.1649 11.6966 20.1649 11C20.1649 5.94608 16.0522 1.83331 10.9983 1.83331C5.94437 1.83331 1.8316 5.94608 1.8316 11C1.8316 16.0539 5.94437 20.1666 10.9983 20.1666C11.6949 20.1666 12.4038 20.0872 13.1066 19.9283C13.4366 19.8489 13.7605 20.0566 13.8338 20.3866ZM21.3872 16.0416C21.3688 15.5222 21.0449 15.0822 20.5499 14.9172L14.2188 12.8089C13.7788 12.6561 13.296 12.7722 12.966 13.1022C12.636 13.4322 12.526 13.9089 12.6727 14.355L14.781 20.6861C14.946 21.175 15.3922 21.505 15.9055 21.5172H15.9422C16.4494 21.5172 16.8894 21.2178 17.0788 20.7472L17.8427 18.8344L20.2138 21.2055C20.3299 21.3216 20.4888 21.3828 20.6416 21.3828C20.7944 21.3828 20.9594 21.3216 21.0755 21.2055C21.3138 20.9672 21.3138 20.5761 21.0755 20.3377L18.7044 17.9727L20.6172 17.2028C21.0999 17.0133 21.3994 16.555 21.3872 16.0355V16.0416ZM18.3316 11C18.3316 10.6639 18.0566 10.3889 17.7205 10.3889H15.2577C15.1538 8.24997 14.5244 6.09886 13.3694 3.98442C13.2044 3.69108 12.8377 3.58108 12.5383 3.73997C12.2449 3.90497 12.1349 4.27164 12.2938 4.57108C13.351 6.50219 13.9316 8.45775 14.0355 10.3889H7.95493C8.05271 8.45775 8.63326 6.52664 9.70271 4.57108C9.8616 4.27164 9.7516 3.90497 9.45826 3.73997C9.15882 3.58108 8.79215 3.69108 8.62715 3.98442C7.47215 6.11108 6.84882 8.24997 6.74493 10.3889H4.27604C3.93993 10.3889 3.66493 10.6639 3.66493 11C3.66493 11.3361 3.93993 11.6111 4.27604 11.6111H6.74493C6.84882 13.75 7.47215 15.8889 8.62715 18.0155C8.73715 18.2172 8.95104 18.3333 9.16493 18.3333C9.26271 18.3333 9.3666 18.3089 9.45826 18.26C9.7516 18.095 9.8616 17.7283 9.70271 17.4289C8.63326 15.4733 8.05271 13.5422 7.95493 11.6111H17.7205C18.0566 11.6111 18.3316 11.3361 18.3316 11Z" fill="#4E421B" />
  </g>
  <defs>
    <clipPath id="clip0_93_836">
      <rect width="22" height="22" fill="white" />
    </clipPath>
  </defs>
</svg>