<svg width="22" height="22" viewBox="0 0 22 22" fill="none" xmlns="http://www.w3.org/2000/svg">
  <mask id="mask0_93_1145" style="mask-type:luminance" maskUnits="userSpaceOnUse" x="0" y="0" width="22" height="22">
    <path d="M0 1.90735e-06H22V22H0V1.90735e-06Z" fill="white" />
  </mask>
  <g mask="url(#mask0_93_1145)">
    <path d="M8.85946 17.4167C8.55731 17.4167 8.2689 17.3728 8.00224 17.2862C7.16147 17.0132 6.63927 16.3857 6.21972 15.8816C6.03986 15.6655 5.85389 15.442 5.71209 15.3388C5.61309 15.2668 5.45643 15.1933 5.28378 15.1205L3.91406 20.6859L6.87775 20.148L9.25332 22L10.4482 17.1448C10.042 17.2461 9.35378 17.4167 8.85946 17.4167Z" fill="#4E421B" />
    <path d="M16.7113 15.1205C16.5387 15.1933 16.382 15.2668 16.283 15.3388C16.1412 15.442 15.9553 15.6655 15.7754 15.8816C15.3558 16.3857 14.8336 17.0132 13.9928 17.2862C13.7262 17.3728 13.4378 17.4167 13.1356 17.4167C12.6414 17.4167 11.9531 17.2461 11.5469 17.1448L12.7418 22L15.1173 20.148L18.081 20.6859L16.7113 15.1205Z" fill="#4E421B" />
    <path d="M10.9994 13.5865C7.95423 13.5865 5.47682 11.1091 5.47682 8.06391C5.47682 5.01872 7.95423 2.54127 10.9994 2.54127C14.0446 2.54127 16.522 5.01872 16.522 8.06391C16.522 11.1091 14.0446 13.5865 10.9994 13.5865ZM19.405 8.06387C19.405 7.195 18.5822 6.46672 18.3276 5.68271C18.0638 4.87013 18.2923 3.79905 17.8001 3.12272C17.3029 2.4396 16.2103 2.32827 15.5272 1.83112C14.8508 1.33892 14.4101 0.331385 13.5975 0.0675564C13.4497 0.0195599 13.296 9.72748e-05 13.1383 9.72748e-05C12.4597 9.72748e-05 11.7045 0.36069 10.9994 0.36069C10.2944 0.36069 9.53909 9.72748e-05 8.86044 9.72748e-05C8.7027 9.72748e-05 8.54918 0.0195599 8.40128 0.0675564C7.58874 0.331385 7.14792 1.33892 6.47159 1.83112C5.78843 2.32827 4.69587 2.43965 4.19872 3.12272C3.70647 3.79909 3.93502 4.87013 3.67115 5.68271C3.4166 6.46672 2.59375 7.195 2.59375 8.06387C2.59375 8.93274 3.4166 9.66106 3.67115 10.4451C3.93502 11.2576 3.70647 12.3287 4.19872 13.005C4.69587 13.6882 5.78843 13.7995 6.47159 14.2966C7.14792 14.7888 7.58874 15.7964 8.40132 16.0602C8.54913 16.1082 8.70274 16.1277 8.86044 16.1277C9.53913 16.1277 10.2944 15.7671 10.9994 15.7671C11.7044 15.7671 12.4597 16.1277 13.1384 16.1277C13.2961 16.1277 13.4496 16.1082 13.5975 16.0602C14.4101 15.7964 14.8508 14.7888 15.5272 14.2966C16.2103 13.7995 17.3029 13.6881 17.8001 13.005C18.2923 12.3287 18.0638 11.2576 18.3276 10.4451C18.5822 9.66106 19.405 8.93274 19.405 8.06387Z" fill="#4E421B" />
    <path d="M15.2329 8.06387C15.2329 5.72946 13.3338 3.83033 10.9994 3.83033C8.66504 3.83033 6.76587 5.72946 6.76587 8.06387C6.76587 10.3982 8.66504 12.2974 10.9994 12.2974C13.3338 12.2974 15.2329 10.3982 15.2329 8.06387Z" fill="#4E421B" />
  </g>
</svg>