<svg width="22" height="22" viewBox="0 0 22 22" fill="none" xmlns="http://www.w3.org/2000/svg">
  <path fill-rule="evenodd" clip-rule="evenodd" d="M11.4109 6.41529L12.2952 7.29916C11.8337 7.76065 11.7753 8.45029 12.1663 8.83959C12.5573 9.22889 13.2452 9.17045 13.7067 8.71069L14.5906 9.59498C14.6265 9.63089 14.655 9.67353 14.6744 9.72046C14.6939 9.76739 14.7039 9.81768 14.7039 9.86848C14.7039 9.91927 14.6939 9.96957 14.6744 10.0165C14.655 10.0634 14.6265 10.1061 14.5906 10.142L13.7067 11.0258C14.1682 11.4873 14.2266 12.177 13.8356 12.5667C13.4446 12.9564 12.7562 12.8976 12.2952 12.4378L11.4109 13.3204C11.375 13.3563 11.3323 13.3848 11.2854 13.4042C11.2385 13.4237 11.1882 13.4337 11.1374 13.4337C11.0866 13.4337 11.0363 13.4237 10.9894 13.4042C10.9424 13.3848 10.8998 13.3563 10.8639 13.3204L9.85886 12.3153C9.39737 12.7768 8.70773 12.8353 8.31843 12.4442C7.92913 12.0532 7.98714 11.3649 8.44733 10.9034L7.68593 10.1407C7.65 10.1048 7.62151 10.0621 7.60207 10.0152C7.58262 9.96828 7.57262 9.91798 7.57262 9.86719C7.57262 9.81639 7.58262 9.7661 7.60207 9.71917C7.62151 9.67224 7.65 9.62961 7.68593 9.59369L8.5698 8.7094C8.10831 8.24834 8.04987 7.55826 8.44089 7.16897C8.8319 6.77967 9.52026 6.83811 9.98175 7.29787L10.8656 6.41401C10.9015 6.37808 10.9442 6.34959 10.9911 6.33014C11.038 6.3107 11.0883 6.30069 11.1391 6.30069C11.1899 6.30069 11.2402 6.3107 11.2871 6.33014C11.3341 6.34959 11.3767 6.37808 11.4126 6.41401L11.4109 6.41529ZM3.09214 15.3829L2.11503 15.6446C2.07123 15.6562 2.03015 15.6763 1.99417 15.7039C1.95818 15.7314 1.928 15.7658 1.90536 15.8051C1.88272 15.8443 1.86806 15.8877 1.86223 15.9326C1.8564 15.9776 1.85952 16.0232 1.8714 16.0669L3.1639 20.888C3.17551 20.9318 3.19567 20.9729 3.22322 21.0089C3.25077 21.0449 3.28516 21.0751 3.32441 21.0977C3.36367 21.1203 3.40701 21.135 3.45196 21.1408C3.4969 21.1467 3.54255 21.1435 3.58628 21.1317L4.56339 20.8696C4.60715 20.8579 4.64818 20.8377 4.68412 20.8101C4.72006 20.7826 4.75019 20.7482 4.77279 20.7089C4.79539 20.6697 4.81001 20.6263 4.81581 20.5814C4.82161 20.5365 4.81848 20.4909 4.80659 20.4472L3.51452 15.6244C3.50268 15.5807 3.48235 15.5399 3.4547 15.5042C3.42706 15.4684 3.39263 15.4385 3.3534 15.416C3.31417 15.3936 3.2709 15.3791 3.22607 15.3734C3.18124 15.3678 3.13573 15.371 3.09214 15.3829ZM5.21222 19.7773L4.17452 15.9032C6.15409 14.533 5.91905 14.8208 7.64253 15.2823L10.9107 16.1563C11.0839 16.2051 11.2309 16.3202 11.3198 16.4766C11.4088 16.633 11.4325 16.8182 11.3859 16.992C11.3392 17.1658 11.226 17.3142 11.0707 17.4051C10.9154 17.496 10.7306 17.522 10.5562 17.4776L7.82772 16.7471C7.75591 16.7296 7.68009 16.7409 7.61649 16.7785C7.55289 16.8162 7.50658 16.8773 7.48747 16.9487C7.46837 17.0201 7.47799 17.0962 7.51429 17.1606C7.55058 17.225 7.61065 17.2726 7.68163 17.2933C8.54487 17.5244 9.57226 17.8566 10.4269 18.0285C10.7421 18.1086 11.0761 18.0623 11.3576 17.8996C11.3228 17.8437 16.3682 15.3111 16.8215 15.0804C17.2005 14.8879 17.6809 14.9768 17.9018 15.358C18.0043 15.5378 18.0318 15.7508 17.9781 15.9508C17.9244 16.1508 17.794 16.3214 17.6151 16.4257C15.4577 17.6718 13.0025 18.9566 10.9326 20.2843C10.475 20.5787 9.51468 20.3273 8.48858 20.0562C7.34519 19.7554 6.13003 19.4361 5.21222 19.776V19.7773ZM2.73722 16.0115C2.82349 15.9884 2.91469 15.9913 2.99928 16.02C3.08387 16.0487 3.15805 16.1019 3.21244 16.1727C3.26682 16.2436 3.29897 16.329 3.30482 16.4181C3.31067 16.5073 3.28996 16.5961 3.2453 16.6735C3.20063 16.7508 3.13404 16.8132 3.05392 16.8527C2.97381 16.8922 2.88378 16.9071 2.79522 16.8954C2.70666 16.8838 2.62355 16.8461 2.55639 16.7872C2.48924 16.7283 2.44107 16.6508 2.41796 16.5645C2.40256 16.5072 2.39861 16.4475 2.40633 16.3887C2.41404 16.3299 2.43328 16.2732 2.46293 16.2218C2.49258 16.1705 2.53207 16.1254 2.57914 16.0894C2.6262 16.0533 2.67992 16.0268 2.73722 16.0115ZM16.8563 0.972443C16.8204 0.936519 16.7778 0.908023 16.7308 0.88858C16.6839 0.869138 16.6336 0.859131 16.5828 0.859131C16.532 0.859131 16.4817 0.869138 16.4348 0.88858C16.3879 0.908023 16.3452 0.936519 16.3093 0.972443L15.425 1.85373C14.9635 1.39225 14.2739 1.33381 13.8846 1.72483C13.4953 2.11584 13.5537 2.80377 14.0135 3.26526L13.1309 4.14783C13.095 4.18375 13.0665 4.22638 13.0471 4.27331C13.0276 4.32024 13.0176 4.37053 13.0176 4.42133C13.0176 4.47212 13.0276 4.52242 13.0471 4.56935C13.0665 4.61628 13.095 4.65891 13.1309 4.69483L13.8941 5.45709C13.4326 5.91858 13.3741 6.60822 13.7651 6.99752C14.1562 7.38682 14.8445 7.32838 15.3056 6.86862L16.311 7.87408C16.347 7.91001 16.3896 7.9385 16.4365 7.95795C16.4835 7.97739 16.5337 7.9874 16.5845 7.9874C16.6353 7.9874 16.6856 7.97739 16.7326 7.95795C16.7795 7.9385 16.8221 7.91001 16.858 7.87408L17.7419 6.98979C18.2034 7.45127 18.893 7.50971 19.2823 7.11869C19.6716 6.72768 19.6136 6.03975 19.1534 5.57826L20.0373 4.69397C20.0732 4.65805 20.1017 4.61542 20.1212 4.56849C20.1406 4.52156 20.1506 4.47127 20.1506 4.42047C20.1506 4.36967 20.1406 4.31938 20.1212 4.27245C20.1017 4.22552 20.0732 4.18289 20.0373 4.14697L19.1504 3.26569C18.6889 3.72717 17.9993 3.78561 17.6096 3.39459C17.2198 3.00358 17.2787 2.31522 17.7385 1.85373L16.8563 0.972443Z" fill="#4E421B" />
</svg>