<svg width="22" height="22" viewBox="0 0 22 22" fill="none" xmlns="http://www.w3.org/2000/svg">
  <g clip-path="url(#clip0_93_825)">
    <path d="M20.8365 6.28081L15.1074 0.551742C14.3714 -0.184227 13.1787 -0.183926 12.443 0.551742L8.22307 4.7717C7.4871 5.50767 7.4868 6.7004 8.22277 7.43641L9.97959 9.19323L0.840439 18.3323C0.532182 18.6406 0.532525 19.14 0.840439 19.448L1.94018 20.5477C2.2481 20.8556 2.74731 20.8556 3.05552 20.5474L3.91193 19.691L6.05281 21.8319C6.2768 22.0559 6.63998 22.0559 6.86397 21.8319L9.28719 19.4087C9.51119 19.1847 9.51119 18.8215 9.28719 18.5975L7.14632 16.4566L12.1947 11.4084L13.9518 13.1655C14.6878 13.9014 15.8805 13.9011 16.6165 13.1652L20.8365 8.94522C21.5721 8.2095 21.5724 7.01678 20.8365 6.28081ZM13.7793 7.61611C13.2186 7.05545 13.2186 6.14632 13.7793 5.5857C14.3399 5.02505 15.2491 5.02505 15.8097 5.5857C16.3703 6.14636 16.3703 7.05549 15.8097 7.61611C15.2491 8.17676 14.3399 8.17676 13.7793 7.61611Z" fill="#4E421B" />
  </g>
  <defs>
    <clipPath id="clip0_93_825">
      <rect width="22" height="22" fill="white" />
    </clipPath>
  </defs>
</svg>