<svg width="22" height="22" viewBox="0 0 22 22" fill="none" xmlns="http://www.w3.org/2000/svg">
  <path d="M20.402 16.1721C19.1112 12.5954 13.5165 14.7061 14.9082 18.2381C16.227 21.8222 21.7899 19.6944 20.402 16.1721ZM16.698 18.2827C16.6655 18.1991 16.6668 18.1062 16.7017 18.0236C16.7365 17.941 16.8022 17.8752 16.8848 17.8403C16.9673 17.8053 17.0602 17.8038 17.1438 17.8362C17.2274 17.8686 17.2951 17.9323 17.3325 18.0138C17.3623 18.0822 17.4148 18.1381 17.4811 18.1721C17.5475 18.2061 17.6236 18.216 17.6965 18.2001C17.7693 18.1842 17.8344 18.1436 17.8806 18.085C17.9268 18.0265 17.9513 17.9538 17.9499 17.8792C17.9523 17.6058 17.6862 17.5172 17.4601 17.5482C16.8949 17.5035 17.1082 16.7149 17.6292 16.8585C17.7135 16.8533 17.7927 16.8162 17.8506 16.7547C17.9085 16.6931 17.9408 16.6118 17.9408 16.5273C17.9408 16.4428 17.9085 16.3615 17.8506 16.3C17.7927 16.2385 17.7134 16.2014 17.6291 16.1963C17.3029 16.1917 17.2664 16.7632 16.8807 16.5755C16.2791 16.1892 17.1397 15.447 17.6291 15.5065C17.8236 15.5112 18.0127 15.5709 18.1746 15.6788C18.3365 15.7867 18.4644 15.9383 18.5435 16.116C18.6226 16.2937 18.6497 16.4902 18.6215 16.6827C18.5933 16.8752 18.5111 17.0557 18.3844 17.2033C18.4816 17.3128 18.5538 17.4421 18.5962 17.5823C18.6387 17.7224 18.6502 17.8701 18.63 18.0152C18.6099 18.1602 18.5586 18.2991 18.4796 18.4224C18.4006 18.5457 18.2959 18.6505 18.1725 18.7294C18.0492 18.8083 17.9102 18.8596 17.7652 18.8797C17.6201 18.8998 17.4725 18.8882 17.3323 18.8457C17.1922 18.8033 17.0629 18.731 16.9534 18.6338C16.8439 18.5366 16.7568 18.4168 16.698 18.2827Z" fill="#4E421B" />
  <path d="M15.8746 12.1677C16.5955 12.0469 15.9842 11.3778 15.6815 11.1509C20.982 11.887 22.0178 4.80819 16.9161 4.42218L8.81855 4.42239C8.48133 0.873172 2.89559 1.17176 2.96948 4.7675C2.89816 8.36115 8.47679 8.66067 8.81855 5.11215H16.9163C21.3437 5.68673 19.8271 11.172 15.6781 10.4612L16.1161 10.0323C16.4396 9.72449 15.9487 9.22132 15.6331 9.53957L14.5934 10.558C14.5609 10.5903 14.5352 10.6287 14.5176 10.671C14.5 10.7132 14.4909 10.7586 14.4909 10.8044C14.4909 10.8502 14.5 10.8955 14.5176 10.9378C14.5352 10.9801 14.5609 11.0185 14.5934 11.0507C14.7531 11.152 15.6588 12.2288 15.8746 12.1677ZM6.54237 6.46408H5.33875C4.70384 6.35902 5.03799 5.61398 5.59395 5.77432V4.0258C5.22495 4.4287 4.62342 3.86847 5.08699 3.52908C5.30898 3.44145 5.84798 2.91815 6.10777 3.11183C6.45859 3.17911 6.21569 5.54643 6.2837 5.77431C6.83995 5.61401 7.17866 6.35588 6.54237 6.46408Z" fill="#4E421B" />
  <path d="M13.3011 15.9394C13.2352 15.8782 13.1481 15.8452 13.0582 15.8474C12.9684 15.8495 12.8829 15.8866 12.82 15.9508C12.7571 16.015 12.7217 16.1012 12.7213 16.1911C12.721 16.281 12.7558 16.3675 12.8182 16.4321L13.2543 16.8593H4.73481C2.3333 16.9321 1.03681 13.7745 2.78622 12.1388C4.22029 10.7655 6.44716 11.5244 8.4889 11.3435C8.86943 14.8618 14.4092 14.5363 14.3345 10.9609C14.4036 7.34373 8.78075 7.07865 8.47863 10.6537C7.52285 10.6527 5.32451 10.6498 4.75636 10.6462C0.269011 10.5591 0.233921 17.6103 4.73511 17.549L13.2543 17.5491C12.9523 17.7762 12.3373 18.4465 13.0597 18.5676C13.2704 18.63 14.1865 17.5521 14.3405 17.4506C14.8158 17.0361 13.456 16.2234 13.3011 15.9394ZM11.2893 9.26438C11.4429 9.24227 11.5994 9.25321 11.7484 9.29645C11.8974 9.3397 12.0354 9.41425 12.1533 9.51514C12.2711 9.61602 12.3661 9.74091 12.4318 9.88145C12.4975 10.022 12.5324 10.1749 12.5343 10.3301C12.4918 11.0584 11.7784 11.4842 11.4204 11.9717H12.2205C12.3102 11.9742 12.3955 12.0116 12.4581 12.076C12.5207 12.1404 12.5558 12.2267 12.5558 12.3165C12.5557 12.4064 12.5207 12.4926 12.4581 12.557C12.3955 12.6214 12.3102 12.6589 12.2204 12.6614L10.6444 12.6614C9.5221 12.4533 11.5575 10.9738 11.6824 10.6472C12.0482 10.2963 11.7162 9.86487 11.2893 9.95416C10.796 9.93189 11.0614 10.6869 10.5789 10.6749C9.71128 10.4222 10.6213 9.14595 11.2893 9.26438Z" fill="#4E421B" />
</svg>