<svg width="22" height="22" viewBox="0 0 22 22" fill="none" xmlns="http://www.w3.org/2000/svg">
  <g clip-path="url(#clip0_93_771)">
    <path d="M11 0C6.9144 0 0 0.77275 0 3.66665C0 4.2524 0.293348 4.7474 0.779152 5.1709L8.25 14.9774V21.0833C8.25 21.4307 8.44615 21.7479 8.7569 21.9037C8.88615 21.9679 9.0273 22 9.16665 22C9.361 22 9.5553 21.9386 9.71665 21.8166L13.3833 19.0666C13.6143 18.8934 13.75 18.6211 13.75 18.3333V14.9774L21.2208 5.17086C21.7067 4.7474 22 4.2524 22 3.66665C22 0.77275 15.0856 0 11 0ZM12.3796 13.75H9.62045L4.202 6.6376C4.6631 6.74485 5.13975 6.83925 5.62925 6.919C5.6595 6.9245 5.6879 6.93 5.71815 6.9355C6.1453 7.00335 6.578 7.05835 7.01065 7.1069C7.19215 7.128 7.3709 7.14905 7.55606 7.1674C7.97771 7.20775 8.39296 7.23705 8.8018 7.26275C8.9659 7.2719 9.12721 7.2829 9.29405 7.29115C9.8954 7.31955 10.472 7.3333 11 7.3333C11.528 7.3333 12.1046 7.31955 12.7059 7.29115C12.8727 7.2829 13.034 7.2719 13.1981 7.26275C13.607 7.2371 14.0222 7.20775 14.4439 7.1674C14.629 7.14905 14.8078 7.128 14.9893 7.1069C15.4219 7.0583 15.8546 7.0033 16.2818 6.9355C16.312 6.93 16.3404 6.9245 16.3707 6.919C16.8602 6.83925 17.3378 6.74485 17.7979 6.6376L12.3796 13.75Z" fill="#4E421B" />
  </g>
  <defs>
    <clipPath id="clip0_93_771">
      <rect width="22" height="22" fill="white" />
    </clipPath>
  </defs>
</svg>